# xmcd
#
# Track frame offsets: 
#        150
#        14537
#        40135
#        64832
#        90480
#        125285
#        151930
#        186582
#        201907
#
# Disc length: 3067 seconds
#
# Revision: 3
# Processed by: cddbd v1.5.1PL2 Copyright (c) Steve Scherf et al.
# Submitted via: ExactAudioCopy v0.95b4
#
DISCID=760bf909
DTITLE=Allan Holdsworth - None Too Soon
DYEAR=1996
DGENRE=Jazz
TTITLE0=Countdown
TTITLE1=Nuages
TTITLE2=How Deep Is The Ocean
TTITLE3=Isotope
TTITLE4=None To Soon
TTITLE5=Norwegian Wood
TTITLE6=Very Early
TTITLE7=San Marcos
TTITLE8=Inner Urge
EXTD=YEAR: 1996
EXTT0=
EXTT1=
EXTT2=
EXTT3=
EXTT4=
EXTT5=
EXTT6=
EXTT7=
EXTT8=
PLAYORDER=
